<mxfile host="65bd71144e">
    <diagram id="V-kYW9GV2uXmBUqnUB78" name="PÃ¡gina-1">
        <mxGraphModel dx="2817" dy="-2067" grid="0" gridSize="10" guides="0" tooltips="1" connect="1" arrows="1" fold="1" page="0" pageScale="1" pageWidth="827" pageHeight="1169" math="0" shadow="0">
            <root>
                <mxCell id="0"/>
                <mxCell id="1" parent="0"/>
                <mxCell id="88" value="Property Binding funcionando con signal como switch" style="rounded=1;whiteSpace=wrap;html=1;fontSize=31;fillColor=none;strokeColor=#33FF33;strokeWidth=5;" parent="1" vertex="1">
                    <mxGeometry x="-728" y="3503" width="430" height="121" as="geometry"/>
                </mxCell>
                <mxCell id="98" style="edgeStyle=orthogonalEdgeStyle;html=1;entryX=0.5;entryY=0;entryDx=0;entryDy=0;strokeColor=#33FF33;strokeWidth=5;" edge="1" parent="1" source="97" target="88">
                    <mxGeometry relative="1" as="geometry"/>
                </mxCell>
                <mxCell id="97" value="" style="shape=image;verticalLabelPosition=bottom;labelBackgroundColor=default;verticalAlign=top;aspect=fixed;imageAspect=0;image=data:image/png,iVBORw0KGgoAAAANSUhEUgAAAjQAAADCCAYAAABe31guAAAAAXNSR0IArs4c6QAAAARnQU1BAACxjwv8YQUAAAAJcEhZcwAADsMAAA7DAcdvqGQAAABhaVRYdFNuaXBNZXRhZGF0YQAAAAAAeyJjbGlwUG9pbnRzIjpbeyJ4IjowLCJ5IjowfSx7IngiOjU2NCwieSI6MH0seyJ4Ijo1NjQsInkiOjE5NH0seyJ4IjowLCJ5IjoxOTR9XX2P5S4LAABafklEQVR4Xu29e2xVVfr///78/vEzKZQitZTbhxaQTmthaJGRm6hh6gcilkhBMzqKjULyI47R0fxCFOYPUUMm6Bg1TkIxR5xxjEKdUCEwVoIUykXk8qWVfkB6YUB6oUJbaObjX9/fetZa+5y1b+fGOe055XklG7r32WevvdfZ56z3fp5nPc9/zJw58/92d3eDYRiGYRgmXfl/9P8MwzAMwzBpCwsahmEYhmHSHhY0DMMwDMOkPSxoGIZhGIZJe1jQMAzDMAyT9rCgYRiGYRgm7WFBwzAMwzBM2sOChmEYhmGYtIcFDcMwDMMwaQ8LGoZhGIZh0h4WNAzDMAzDpD0saBiGYRiGSXtY0DAMwzAMk/awoGEYhmEYJu1hQcMwDMMwTNrDgoZhGIZhmLTnP2bOnPl/u7u79eogMvY13PXMLPTvWoy2E3qbJvOJ3SicBNz49k/4/p/79Nbkkfv6/8GqOZl6TdB7CFXLnkCHXk0HSja3YslkoOfwm3hvXZXemgTKPsHv185FT3U+/vqB3uZDIvt1wQMP4cWSTPSf3IXf7RuBt/4wH5PQh+N/34XX0+mDSgbT5uMfZcCOtw/iI71J4rd9SJGJdc8+hJmZ+l64g655AtB3Gn/e8j3q9F4Mwww92ELjy3nsXJiPDbSkmZiJjo14cm8rfv/6Kr2efDrW/Ur1p1h2NuuNCaEX1/rU/5dudTGTexf+Jgbw/pOn3aKl4TSO903A0mfvwgK9achz5Rr66X9xg7CYYZihTVoImr5PFuPohsUDYp0ZHFZh8RetWC8EhrXcrNA4uVoJh6RaZwaRuu5e+X9nt1QyjGQC3np8OjIuHMTv9nn1Sx9e33IQLZnT8WLFBL1tqNGHS9fofxa3DHOrkXxBkz0byyuXY3a2XmcckKXkFdyNQ6iyLEJi2Ybn8OQavQsTAT2I9V1Di9pwS7LggemYhIvYUX1Rb/HiIl6qFa9PnI+3pulNQ5mOPnSK//qvKgFsMeqe5aisXISpep1hmPQnuTE0BYtQOXcMcKMJNduO4Ce9WfEs8tZXYLRes+g0Ymis2BkL8zWJjruBR2zNbf+9HTN+DbR9uBydl/XGKFGxHl3YubAMJ/U2E/l6USOqll1E2d7HkKe3e8WrWLEsLpo/w4bVa3VbwHcbf4Xdtfo1G2S9EYKnW+3vwhHD4myvzRHb4opjceB1Dc732PYx2m+cYbQdIT5Gnmd2cmOTnq74LZbiIB6pz8TfyHKht7fUfoqXGvSKhYwvMawWF8T7TGEgXx8h4zIuzRPHnai3k4BwxqSQ28doz3MfgTy/4HHEoCvjgUKWFRknNLkNf97Sh6UyRkjh3E8xQcYRjfZ8zYmOM0G8cSWqLYh+3JGtYpkU0fSFI87Jiuv5+zX8Ru5HxziN8TIORrzu+Bys2CkL776IhqlYVDkPY3AdTV9ux5EUCCNkGObmSJqFRj4BkZj5sR4Bp5ghISLETIYQIuRKksuHx3BDv2xhuZq8XpNc3ofuHmDY1Adwm96keABZU8VPaMuemMVM1IyYi1V7F6N7o7aqVJ9H1pxXbFYVJS6MWByxD0GCwC5OMpF9p/7TRRU66Mc2ewJy1QYP+tD9g/rLcjVt2HgIomtchOJYPkObWJfnYp2fWOxiRrnClOAK7bMNj2KxGIRM8irEtUKILrmPOLbonxUDGJ/jy0QxYD6eh//5+6d45O1P8eeTfZhU9hDWGZ1Jg6QSK2qfR8Sg3ELvc7llMjHzcS2S5H673DEpegCHGGjVPmKhwdp2LBIE4jgjhaAI7nNa3DDiPJxtknvoD9NxzTq32ovIEPu5rCvTJsqg6P9pimZw70Nds9gvMw8L/G+qiEwq+y1evP20vk6PvqDrXAJstq5RLDsuUB/a+198mfCbJSPxNfW7eM9vnr0Xv2zeJT8rTJyIp/VeJABfLOkVgkcfT/fZ3x7wF+j+nMOeQA2abgxH4cOVWFSgNzMMk7YkRdBMfbAS5UXD0X4ogMBX5/TWEJkPzMKwnmM4f9MxMfvQc64fyCpC1li9iRj7ALKzgM6mLXpDcmirNqwqHxyXAiFrrDWIb0SxnGX0ecjK88Hn+K6XTvf+oDjpWLdbvo8Ewfq9tShRm220d5mDlCOY984cZKELHZ7WnZtkzaO4e0Sfy3rUsa7MbU3SFifFWjQ2268zKio3obq62nfZVKn3iwm7RaBu32kxaGbil4XWICgGYTlb6oAxO8pyy0x3DLzKIhCyGFjCYGTQeoI7RiLDKSw6vsfvbFYG7RoyrSNin81yAHe32VJrWDQaLki32uhs+yD+9FQhhPraUBeluauuqQ39oh9G3qE3xAPNHArXF9SPDgvQR/WnZbuh/ifE382hIOYM8Y3YHLS6jMB46g8hFH8zkfrCsADpPssomR4UPbHxE45sC6D+R2DM3Eosv2eU3s4wTDqSYEEzCrNXVGLeODLjBrDnrN5s41ncTlOwz+3Dz3rLzfDzP/egU/wEZk97QG8BbptWhGFoxlXH9O/Ech6N4aYpl00QQsOH7ouGm2Ut/rowH1WH6Qd8CpbooGDT0tNxuUv8rudgDK3o41piIXdsDm1NCiUzpgC9jTgZhVhqO+XhDouVwMuoqKjwXV4O6P1iwTXIqxlRGbePUKt+lg05O8Y94DuDkOv2kSXGGGT1+9xWCItMLJgsBnCPeB9vkXERDU73mItMjB8p/otlJo+OLXEKo1job74Yu7tKt2vH0f8e17GgME+6o5x9oYLDteiJk3NfBVBz5jqGF5Wj8kGOqmGYdCWxgqZgFgqH6b8HjC24KkaGkNtJuZtufFstfiYHkdoncJCsFHMeDVldpMXDe/B3uoKkxWbzRvXiD13oQQ5yy4SAua8YOHwIbZbAIXq70K7/TByrkEuB3DbxNfRYkE3CRrmS/vEHY7HFfcQAWWOk68Q85ny3BSGM+LgZkZFqSHee2a9GLFAsTLqd+mQCltqOJRYz7ikRjJvOExgYJk1JrKA5uweBAJlwlV96oEy4fU3Sv6HcTtLd1I/uhsGe4q0FgWF1WV8xxRWk60ZZbGSelsmLjVgVFWczJgc4v/8bdPdOQfEaWhc/9EkRHdHE7iSYpLicwqOe8MktFYrzMBdX8HBUXMRL1jHIdSUHYg9R48NQmYpuBfBSEHaoT0nsxU7LVeoTChg2j2UtN5dM0XKRXz9TI36/OECYYdKVpMTQhDfhNuPfFMibbZ/6I+Nq9N8xc6IabT3K7STdTT1n0JOsYOBoCcafhIJpaYmUTdcTMSiqAF+Ky6F4mSqcPNOHvBnKgtPTFU+WumYhioQOzPGagqWQsTsjilHiCABOGslwOTnJnYBfCg3Yck7Hfvi4lhJGw0Etaiy3iI41MYJdLfzcKpHR09ZHZkafMC83U84w9BVPNPuILCBxJ+GzXGunsSMuUWgnEa4lN5aLXNzrhwLYftQ+D5NhmPQiKYKG+OnodgQOtQPj5qFyxWzx02GhA3knLcJoHchLU6wLb+/3nskUFeqYw6ZWYMzUDHTW/zEh8Tk3hXQThZu9pCjZ/H9cM4ZoKvR80hnNu3XwrRIfeRWPIa/5uAwy7tjfiJ7Jj6nyBpfjSZ6nLTA2K5AdFbCcibvX2oOVc1+v9X1PapOJdUumI8McZDu+x9cXaMaOX8xLbJBVwjkDSQbsGoneVGDyBCw1ZzTl3oXVMjjZI8NvFHxEAi2GWUtKPPXh2hW9wYE6Z0HcM6G0yDLfTzPA4nQ5qSzH5MaL3tIVHpq2XY7CYeHi/RiGSSeSJmgk5IL6sgnXh43HnYZf+ud/LkdTSwbyntmNe9bvxozsPTj63h7xpGxCeWrU6/c8o6w3ox/S6+vfF0OTnZ8bzuBG1mSMzkp2MHCU1D6BbYf79Owlx/LFJ0E3zsnV7wP/r+N1ndclNGtIiw9BMP6m9hucp4dWMXBYU7atGVDWMSh4ONS+ewbVydVv4rteEizWPs4MxeT+on0Mt5lYVuBzn5w5KYic9mzFXDyEmdcO4hHnzJtqms4NdxxNHNYJChJumGo/jpqebeZnIZeUnhpu7ff4dHTWfhpnThWBnP3knD3kh7aeXDjt66qRAomIYeaUk4+qaSq3EUv0uDU1Ox4oyzFN+/aIo4kj6/Goe6ZjDNpRzy4mhhkypE5xyhQiUmK9aLCS0bliZnQiuizbNOdbjwFLrEdi4hYpSqhiVmBPXOeFkSTwZmJPGIZhUonkWmhuYWSwrtfU7mA8DMMkFivHzswl4SxLE/AWzQwKY51hGIZJR1jQJAmVDE/NRDIp2axKJSQkbwvD2LiIl/5+Gv2+xSep5MF8TLIlxGMYhhkasKDxxYgbMWJeooXyylCyPGcMjVUKIa7ZTmkOueFC/aA3MomF8uDILMfuWVSYNh0zMx0ZihmGYYYIHEPDMAzDMEzawxYahmEYhmHSHhY0DMMwDMOkPQkTNPn5+fjP//xPvcYwDMMwDDNwsIWGYRiGYZi0hwUNwzAMwzBpDwsahmEYhmHSnoRN26YYmvb2dvzv//6v3pLmyBIFOTh4E+UPBhNZWoAKVx5+E++ti6d4ZZToUg5Ue2po59ahpHQPYWZmnyoZcAeVD5ggq0l7llagQoyPq0KYN116wToWLmLH22ZNqCQgyyIYSfkuHMQjA5WEL0KfqdIOVMBzF363bwTekoUu9efBWY8HjJVvVaM8D+g/9g6e2nhAb00OVlsWrTsTVHU/GWTPxvKHC3HjEBc7HSzYQmNjFRZ/oatfU4mC3i60iz9lQrjNG+UeQwdVyNJejJKJmivXVDHVa31DK0ldgxAwb38qFiosqbelJL3U9fJ/q4o5M/TY+lIFKirE8u4JR/Hi1GPU5PEYfqMJx1jMDBosaGxUYffXXar69OaZYj0HZV+0YtUc4LttySxVQELKnlH4ZoXGydX52LAwP7nWmTgwswWrxV0FPDXpw6Vr9H+UA2hHHzrp/0QIHsr+K0VGkq0zg02EPqvrluXl0dmd0kpryGOJjGRbZ9KLqZhVNBzX//UDftJbmIEnzQTNVCyqrMSiAr2aDD4ok0Jgwykgb0QOuv9CwuBX2F2rX084ZCl5BXfjEKqoXb1sw3N40lEHKr1Rok2Kw42h69yw8DiK09H6pQff/qtqkGUGGi0w+66hRW3QqN+I5feM0usMc5OQK6lyOWZn63UvCiZhDK7jUnN8cmbqg5WoXDEbfNfeHOkTQ6P9k8PRjvrAHpzTmzH2Ndz1TBG6P1yOfz+wG4WT9PaeYzj13h/xs16NmjW1WF8xBWg+jzZ5A08RwobqL4ViacjKsKqoEVXLLqJsryo2SXjFq1ixLC6aP8OG1WvVseQg7yeaSAgIwdOt9nfhiGFxttfmiG1R7VElcG+8rsH5Hts+RvuNM4y2e4VAW/YELGNG5OsM4eoz3VdOnPt5xwuRYAx9RlQB3fwsBwUZK5KH//n7Llya91ssnai3O2NHgrEzmrDxOFaMj171iS15usJoT6DiUbwsHvp41/xjaJzH8o63maBjXSySH/My6p7lKBdPy/ixHoGvgr8UmnvxauAFlGa2oqbiZWzVWyX3vYqPny8FHLEhzjiOm4kduXftx3hhVvATFV/QGlS8ZDsLwUpsqi5Hvl4TLeLEu0/hjf1qzTqGO55EXxtO4J3KNxDtGcrjFZwV77mEpUa7zuuMLZ7FeQ3+/R3qDY99LPS+XX5tuo5l77MgsbRJFCxC5dwxwI0m1Gw74mN9GYXZK8pR2Ou8355F3voKYNditN+xHTN+bbXajKYNz4lvgoHf+MbERHpYaOimog+bbirPDzsDec8IMYNqHN2wWCzV6MyahRlPPKtfjxYhHn6ToywI27qQhS7ULstH1eEcLHFaEUbMxaq9i9FtWRuqzyNrzis2q4oacFUxSmsfggZe+wCdiew79Z8uqtBBejN7QpgCmX3o/kH9ZbmaNmw8hB61yQYVzVSWkc/QJtbluVjnJxa7IPC2qmzDoyrOyICKcC6BEB5yH3Fs0T8rgm6zVSgpEiNtbyNORhAzJHyKT4Xaktcx+TFXDJOrb8VyMOc5+3mR2BJiJsu4xp3NVHQ0FdxcmZj5+G/xm6u7dMzKQbQ4q2QHXU2fYscFvc0LEj5/EOIDQvDo/R95WwxE8+7CAr2LEhZCgIw09vn7adGRD+EfnpW5w0MButPOWW2pY/VPnO84lhYzJHSs/d4+jZFLzPNKPD8d3Y7AoXZg3DyPp94DeKOuVfyfj2mVaovFvXMKxC9JP84etgZxGpTFIH67EAgUx6FjOTDrBVS/tVLvEz1KiEAMtPpYYnnnykJsMs+jchOqhRDIEWIiuM8xoPT56uB+BzbuFcOwuIJixznctwAF4mvWf7YuajETJLMUL1QvxDXr3Ha2IkNcp3luUcez6GvIJ7Gmr6GiogHTjD6jvqjWAsXap6YtH+XVH+PV+/ROUSM+p6fFL2WwLTpWhugzx7EMwWrtV/HuNSz0+SxJGEsxQ8LYV8wIxI/3+GFA+wVvGTL6od2YMfUMTsmx6U9o65mMwt+/htv065LuI9geqBdyZgzmRbIGMb6kvKCxbqrrZ2rC31QtQsx8skWvbEH7t+IrN2mGGDZioQq7lxkWhBE54vbSIsDDQtBWbez7wXEpELLGWoP4RhRPJsHwecga8MHn+K5X7FN0f1CcdKzbLd+nqnJ7D7TtXaaWdwTz3pkjhVdHBKEQF2sexd0j+lxWlY51ZW4ri82KshaNzcZ1lt2PKSNEX5z5Jmix8YP62jZbqvYJHBTHwuSZRt+sQi594ZuP2ywtJ1fbz7NkxVxk9R7CNkOknVxNQm4K5lv9J398q30X22CTaMRAH7KOXEQDiZaRmTEP9k/P85oZ1IfXq0PrCx6Yjkk0S8rcRwimzSdF+xOnY12M5eTr9u3CSw16hRDH+prO36zynZuJ0eK/lnOm1eYiXvK1MiWQs3sQ+LIJ14cVorxyEabqzZJAg4cguBcLCsQTdNtewxKyUMge8QRvWjv2v4GqY+K3JW9hzAPvpDvE8fvOos6wGhzY+JRhcbgXry7Il1Yb0zJyYGMVToiPKX/Bq2IPYisa5I/GNDGUh1CCrBV747Qete40LBq6j3JGqxajJ3QNdsvTVrwcXF+JpbOEdBTCwrS2bH2pRrQphEi5t8DwRxzbYZHaWkOiKwMFc4zznzTSIVgF4vN8ymUhUy4gsvK1Hwp4WPnsRAwGtnkL9qGzXv44irFCbjA4hz2BGjTdGI7Ch5McWjFESWlBY95U24+G9012NlliRvHzFRo6c/EL100TJWIgfS+sa+I8GsNNUy6bIISGD90XjYF9Lf66kKxANLCR9UAFy5qWno7LXUFxZR3XEgu5Y3Noa1IomTElKqsK0XbKLfgShV3QEdpq5WG5CaEFpUtENYNiS7NytK8q8HLoac1j8Tep3zz2gT5eJmDaRPFU3nwxjEgQImmykPaueBMhTJraxE98JkbeoTfcBC1XHZ+TjjOaVPZbvDVNbRpQfJ96PQSBtm60NlqDmxY4Hn124PBZOViODPnRoqLlihBCZAkJWMLEgWVhueJqEXVn6b0jg667rY1OK5MlyBr83SdhaUVDIu51Vz96UDlNuqK6Op3CS38ut4/37p9Y2H9JPOY5aKGZiR6WGxvkPqrEvHHX0fRlNNOvIwcD3zi3zx760HEVN8R5/MLzIeInHNkWQP2PwJi5HAsWK6kraLJnY/o4/Xc6oi0LWXMeDVkWpMXDe/B3uoKkxcYarH/oQg9ykFsmBMx9xcDhQ2izBA6hp5cnFm0FsYmvgUBZoMyZUF4xP+RakyKQRI3ezzYzzBJ+c16xHWs9BWCLz2DIoK0gUc38CTPjanS2u4/Do1xY/zAWyhFj5yJe0tO/SdSo/R6K2RqUGMRTb2nITqOe4EOCQFo3+k5gh3NQv3rJ130Tq/WCrDHkylHuHW0F9HB3uAd6ixyMtwbiwA5ltbGsTFJI9ONETXxyJmFoK8g1pyZzEWYfQ7hFi3RhGZZV6fLSrwUha0yFtgI9b+23yWblQsEsFA7Tf0eDDAZux+kID9zxMrxolt26yIQldQWNfLoKoObMdalUKx9Mt49VCwLD6kLBxs4gXTfKYrNTulkWGzEhKs5mTA5wfv836O6dguI1tC4GkaSIjmhid6KEcvqI/0xXmzc6gJcCinXMCy3KeuUmJALfVK48IV6Coka36YwRCi6We2wwXU6JQFtBYhckdmKbCq1jY8jNFYyN+RR/JveViz68vkXvQ3E2MnZogESNnJ0yTw449eK3xOY62F+Hs0FBoKwbscae+AuPMBgWwRr55FIeQzxOFy4F3VXaaqOtTEqQ2d1Zg4K2gsRqvbLhYRULhxkkHbKuknDxYitetvYhcSlkT7kpashVKe6V+h+V2ye8hWQUZk+nGJuWBAbxWhYiKHcXBwjHRMrH0IQP8PMns1D6G9BzWW8YaILxJ/aBNK5sunpwVm4UipepwskzfciboSw4PV2kfmLF4XrxQLp6RhSjxBEAHDsqpibisdbMlLOR2r4OzY6KDop90qImeD2Rr08yiC6nxKASzGVMnhAm9qYPdc1iJzO+RbOgME8MPxfRYMbDRGLaRPkE3XI0xlgYCnLWoiYRLq6wRJxIoIODSRBo64YttsIhGEysWJWbddFQkK0UNZaLxSayTLzdSSo4mKxM8QmypKBdPe5rMJDxOY74FslKTBM/ALFdh+Ua9LCuRYK++1LUGJYvzbmv1MP08KJy/4fpCMHAftw2rQjDxO/T1RN6QxBKOVCOwmHRursYJykvaCThAvy8KH1fTt/urI9j2naikG6icLOXFCWbdWZik7JPMJ/G4ebdOshVDc55FY8hTwfCduxvlLN/aNpyz2XnVOVosOJQTCuQHRWwnIm719qDlXNfr/V9jx8qGJeO5bzejXjS5loT16mFGkGzmdwuJ/GeLz6xW3uswOOguKMkieelS2poZ0Puw+tHLwoF75ghJfp6XUVoNlHdvtPiqXcClpr75N6F1bKUwOnYEvbpLMmTpoaORVO4XS6nafPxtwfs25SA6sO1K3pDEoh6doocWMUTOk3jNYKBLSzBUG5aUO57FatkQOuOGGNVaEq1w72hB/CQW8sSWeU2y+C9a1eh1NOdpGJO8peoaejxBgMnlq3YIYOmy/HxWlOwrMSmYD+qfTJmrbLFsqx8i9xEsV7HAVy6Kv7LLMAC61g0m8nD5USWHKfFdWWxjOYxLF8hIj1MTy1VgjmmzMBjX8OUX2fgxrfV4ltgYLMmbseRm8+kckuSZrWcSMHOA8xaGTIPzSyheE360fbhcnQmyTqjcqp0OfKZKHcJTRG2pj775nyx5WjReWYccR1O15SVcyW03XqfOQtJu2zoTxde+VfcbbtzuUTYx6eWkzzfbHsuGsK6jhCO87LyAGmoLUoy6Opv3a4ZeO3pzvPYj0RANPlwkobOL9NZ+6ltppDM60LTqvUsIKt2kReu/DHOnDXiGt35XrSrSK8RLV7nYOaWMbDt66j5ROezWQzaL5b02upNua8h2fWo1G/EsDM1EScSEFZuFf+cKs58KuH2jYT7WJ45bcgNusTWon+uFGtfz3w20aFcNl2ONtS50vRxdX7ucw/hcX5RXIPlKgrS58yfE22bVm4huSKg1xowzXb+CmcuHXebHsgcMeNx6UtTaERzn6k8NBTjZtK5azHaHNYZmgAzb0S4XDdMNKR/cUotaPo9bpLBxBIzrkHWGmB9ksUxDDNwqAEujGBIdbRwiF9kMXEhE+4hQhI8JWgyvv0Tvv/nPr2NSSbp4XJKQ2SwrtfU7mA8DMMwg4uO2YjZfZQ6SJdJPPEjzE2QjGBgJhGwoEkSKneKmolkUrJZuYSSmbeFYZhIkJuiHPlCDFSlROxJ7JDLpjyvHyc+ir7MAZMIVK6YSAn3mIGHBU2SoCnFNN1YZQAOLVa6flesB8MwAwDFZdCU/NhrHqUK5CajlAKqjIJHvSKGuUVJ/xgahmEYhmFuedhCwzAMwzBM2sOChmEYhmGYtIcFDcMwDMMwaQ8LGoZhGIZh0h4WNAzDMAzDpD08y8kPmdE3Bwdd5QLSA6vEgLuUQYLxKX0w9MjEumcfwsxMXVLgDp36nypO61IFNqxSBH6vm1hlBKLZ1wNnuQJnOQM71nVE2i+RWCUX/Moe2F9vscolXDiIR6ov6n2Ym8YqRxBNun8PnGUDwmcnDpUjSOksxjLj7zA02coaMOkKW2hsUN0iXTyRMvr2dqFd/EllDNZbBRSHDFT3qXWIF25MIrpAI5W6jlWAJJqPqj/FI2+LRVayTn/qqBKroP+q+p9JDag6uKxC/+6JIXGfEVMnUsbf0yxmhggsaGxQheYu3L22VQiYmWI9B2VfULVn4LttyczsS0LKnoDvZoXGydX52LAwP7nWmTiQ4tC4zvV77ZW8U5c+XLpG//fikq3gow8dfeik/6MRPA0HlSCJwzoTO314fYsSQANjnSF6qRtE09fQojY4iPQ6kxACLytBMiDJBA/gjUolgFLWOpM9G9PHAe0XOOPvUCHNBA1VOK3EogK9mgw+KJNCYMMpIG9EDrr/QsIgmZWZyVLyCu7GIVRRu3qhCtNPOsompDdKtElxuDF0nRsWHkdxOlq/tGBhK0IS0Navzm6jmriAKhJXrpiNUXqdYfwYdc/yiPfKqMnjMRztaDmrN8SEGouW38N3YyqRPjE0soR7obwBbRVOZbXtInR/uBz/fmA3Cifp7T3HcOq9P+JnvRo1a2qxvmIK0Hwebdm0YYoQNlSuIBRLIytpFzWiatlFlO1VtZkIr3gVK5bFha62rapy0yDvJ5pICAjB0+1TndsRw+Jsz1nt26oC7ofXNTjfY9vHaL9xhtF2rxBoy56AZcyIfJ0hXH3mU5ncuZ93vBAJxtBnRAVDzc9yULDia/RqEEfMyAIZS9LriDtR8SajT+7C7/bZB3zruJ2esTGh2BmFjgXysjZZMT1BnLEv6hwg2tmRreNdJH4xMgnC7zfAQseI9B97B0856jN5VdWmWkgvzDI+hbYaVLwUZ5nK+17Fx8+XGp+pdwXvsG3GeP4RcZ2TxnGd6py6HMemEhHlyPE4F+u4XZ6xMaHYGUW/f3kGK6YniPP61DlAtLNjtNlv4fuBhO+8ccD1MzXYfvQnvdUJCZJ5GObcJ4bxhERTedFw4Md6ruuUIqSHhYYCt+iH7EYTajzLtWcg7xlx86EaRzcsFks1OrNmYcYTz+rXo0WIh9/kKAvCti5koQu1y/JRdTgHS5xWhBFzsWrvYnRb1obq88ia84rNqqIGXFW7ydqHoIHXPkBnIvtO/aeLKnSQ3syegFy1wYM+dP+g/rJcTRs2HvKs6k01ppRl5DO0iXV5Ltb5icUuCLytKtvwqIozMqCaVUsghIfcRxxb9M+KoNtsFUqKxC9cbyNORhAzJHyKT4Xaktcx+TFXDJOrb8VyMOc5+3mR2BJiJsu4xp3NU7BksN1cHd/jd+RiCi67cNyhTRJPyNX0SG2YQFsSRVMvOM5tApYKAfO03sViUtlv8eLtp+37PXsXFujXE073EWwP1As5MwbzKpdjtnzgMAjswAnRjxkFC8SwaqKqaqOtQQ+CNOhSLSQaxHVcSEUNWvPKUR141fHeKNADPMTgr44llnevYeFbK/UORBRtRn3+UbL/DTwVbIuWd+Txk0vI1VSxs1Vv84D6rLjBcW75KK/eJK7WTv4S0W937LXv5/k5jcLsFUrMtB8KhBEzgoJJ4i66jkvNXvtEN578dHQ7AofagXHz2HKYIqS8oJGmw7ni1hNKOrDtCHxv0RZx832yRa9sQfu3/eIXd4aQCrFQhd3LDAvCiBxx02sR4GEhaKs29v3guBQIWWOtQXwjiieTYPg8ZA344HN81yv2Kbo/KE461u2W71NFLL0HWlW528IRzHtnjhReHRGEQlyseRR3j+hzWVU61pW5rSw2K8paNDYb11l2P6aMEH1x5pugxcYP6mvbbKnaJ3BQHAuTZxp9swq5NJg1H7dZWk6utp9nyYq5yOo9hG2GSDu5moTcFMy3+o+eEmWxQu9lU6Xa7ZaBxJZtZpEQQkdpfQKmTVNbgtCsrOC+fahrFvdp5khYD7XJ4Rz2BGrQdGM4Ch92up8PoO6s+N5nFmDBfXoTUTkN+WQpqNFyoHIpSjPJcmA+5W/FyzQAZ5Ziaayf+aSRYgjsx9nDhiWDxIRp7YmqzSjPfyjg7B8SQnUkgPIxzdn/NCsruK/VR877jCwu5SgcRta7APZEcCNFDAaOdjw5uweBL5twfVghyisXibNgBpOUFjRkOiSTXkS1Lehssm4+xc9XaOjMxS/GqvWYEQPpe2FdE+fRGG6actkEITR86L5oDOxr8deFZAUi0ULWAxUsa1p6Oi53BcWVdVxLLOSOzaGtSaFkxpSorCpE2ym34EsUdkFHaKuVh+UmhBaULhHVDJpEk5WjfVVWoKTPkrIBjQOJNaPLQX/zxUGa4fUTjmwLoP5HYMxcexzDgcNnxblmoGBO6Pl9ZTFNVT6LOu32kOviIeCS0w0SaAANqTmjY7TRtFD/ZKD0+Y/xqilEDKJtM5rzH7LIfnTTf7ZOyJgwkCuych7G+FrwHUQRDBzTeBLJcsgMGKkraPRNl7Zoy0LWnEdDlgVp8fAe/J2uIGmxsQbrH7rQgxzklomv1H3FwOFDaLMEDqGnlycWbQWxia+BQFmgzJlQXjE/5FqTIpBEjd7PNjPMEn5zXrEdaz0FYIvPgPGH8tr84w/G4hXvk0IML5oVejIWT/57xRco5LZR7prWOsfMnjAzqjLuiNHGJF07NUKYkKixrHtu10lUbUZ7/kMAiguyWUS94n2iYGopxVVFjwwGFuLnWFzBwJEYjsJSttMMFqkraKTqDaDmzHX5FFb5YLrdJFoQGFYXCjZ2Bum6URabndLNstiICVFxNmNygPP7v0F37xQUr6F1MdgnRXREE7sTJZTTR/xnutq80QG8FFCsY15oUdYrNyER+KZy5QnxEhQ1uk1njFBwsdxj7HKyoZL0UcCwFUMjlpTLb2OPlQg4nsq3NpIbR7ttpLumFQ0xWNr6r8QzeXwrXrYsezJ2xDsexA+zzZs9/3RABTmTC86wiMaZ3+bcV3QP1KNdun0iWUimYlbRcFz/1w/+4QuxYlmIZLC6OBcOEB40Uj6GJt7Aq8xC6W9Az2W9YaAJxp/YB9K4sunqwVm5UShepgonz/Qhb4ay4PR0kfqJFYfrxQPp6hlRjBJHAHDsqJiaiMdaM1PORmr7OjQ7Kjoo9kmLmuD1RL4+Sbq5nKZNTGKMygQ6PHDhtPfsp5TAipW4jqYvfWIlZHCtcttId40jmNYmGEx0rIotFiYe6J6SoiYH43UbMbUZ4fwHBHleycIKct7rPfspLsLFVhmEDQb2x3c8iThhhRlIUl7QSGINvCp9X06366yPY9p2opBuonCzlxQlm3VmYpOyTzCfxuHm3TrIVQ3OeRWPIU8Hwnbsb5Szf2jacs9l51TlaLDiUEwrkB0VsJyJu9fag5VzX6/1fY8fKhiXjuW83o140uZaE9ephRpBs5ncLifxni8+sVt7rMDjoLijJInnpUsqXbMhq4y5RjCuazp1otEJ7iZODM1oojZTxeVkexIOl6peBY5mzHpBWQGcwbRaMJQ+bc6UWYlNNIU4jkGWpj07LXmumJmY2oxw/gnmQGeX+NcIxnVNp040Leo+y5sWsmBRm3G6nEL4x1YpRmH29DgyA/uMJ9aEFTltO9yEFWbASLNaTip3AA4ZT2Yyb8AsDNOrin60fbgcnUmyzqicKl2OfCbKXUJThK2pz745X2w5WnSeGUdch9M1ZeVcCW233mfOQtIuG/rThVf+FXfb7lwuEfbxqeUkzzfbnouGsK4jhOO8rDxAGmqLkgy6+lu3awZee7rzPPYD3DO3BhedI+aau3aRykVj3UOU5+U0xot9f9ls5aGx6iB5YeSF8ct9Q9hqSDmOR6/tBFbb8tt458LxzpuTOGR+kRHiSTiawcPKweJbt8iZL0X8anjlXIkSZ50j73pJMbQZ8fzjQbd/1Z1vx54fh/K87MB4sW/BWev8VE4Yb5lj5IWxzltud2C7Fsfx6DVx06wS7w3lt1H7OHPheOfNsSNzxPzXJfu9QoL44ULcMMcPJ1GPJz55bJhBJf2LU+obsH/XYrSd0NtSAEvMuAZZa4D1SRbH3Ir4CxomTozcMPGKlEElKefvL2huBTxFjpMUHU+Y6EgPl1MaIoN1vaZ2B+NhGEaTOwG/FLcLl1FIHPfOKUAGWrE3HcWMICnnf98CFNB9FlfQc7qThGBgJuVgQZMkVO4UNRPJpGSzcgklM28Lk9oseGA+1hkBQE/PI1fQRXztLGXAxEflJuk+ad3p75JIaRJ0/veu3WTLi7OynFxB6Svybg4KGo6cz4xJb9jllES8Y2hSoJYQM8g46yoluQbSLYIZB9LqWWcotUn8+TtjdmKsBXUrwi6ntCb9BQ3DMAzDMLc87HJiGIZhGCbtYUHDMAzDMEzaw4KGYRiGYZi0hwUNwzAMwzBpDwsahmEYhmHSHhY0DMMwDMOkPSxo/KASBXvtRRnTCaqZtH5va/ILM8p+asWTjgSCQw/KHfNb/OMPD6mkeFS08Q9i/dm7sEDtYIdqJ4V7fRB5uoKu47d4yyp6aYPqNNHr82WBSqrPJK+zIplFMZmUQxYCDVO1mmFSEBY0NqgQo64GTSUKervQLv6kBHnrrYrQQwYqZDkAgmeocuUa+un/a326qOPQRFX85rIMtxqjJo/H8BtNOOZXxJFhUhAWNDaqsPvrLty9tlUImJliPQdlX7Ri1Rzgu23JLFVAQkpZVKzlZoXGydX52LAw31E5e/CR4tC4zvVpYwXrw6Vr9H8vLpnlw/3o6EMn/Z+CgqflKpVY6MO1K2rdTi+dsnj5Gm7Fij8MwXWPmPQkzQQNlWxPshn0gzIpBDacAvJG5KD7LyQMfoXdtfr1hEOWkldwNw6hitrVyzY8N8TcOEq0SXG4MXSdGxYeR3E6Wr+0YBnylgttierstteZosrFlZWLxDeSSSukK2k5ZmfrdS8KJmEMruNSc3xyZuqDlahcMRuj9DrDDBTpU/qAvogPF2I42lEf2INzerOqvVGE7g+X498P7EbhJL295xhOvfdH/KxXo2ZNLdZXTAGaz6NNfumnCGFjr78kazQVNaJq2UWU7VXFJomew2+6LCIUy7Jksl4xaf4MG1av1fWeaJD3E00kBITg6Vb7u6AYlrVz0VOdj79+4G6vTW+38K4vFcLrGpzvse1jtN84w2i7Vwi0ZU/AMmZEvs4Qrj7TfeXEuZ/XuSvBGPqMUqeWlrOekxBHJ3fhd0aBSopfeXFyG/68pQ9L/zAf1q3t3I+guJilE/UKceEgHqm+qFeSAT1czJMDX9OX23HE+RNSuQnVS/LRf+wdPOUohrjyrWqU5znqCt33Kj5+noonWtxM3aGV2FRdjny9JnoMJ959Cm/s16sas3aSpK0GFS9ZLepj9J3AO5VvwHYF+triqbekrl2vELY29TkVnBVtXsJS4xq8+tE6jxAR+qxgESrnjgFuNKFm2xEf68sozF5RjsLeegS+Cv7KCp5F3voKYNditN+xHTN+bfVbM5o2PAfb3ej3W80wSSY9LDT0RaQvCH0RPb8gGch7RogZVOPohsViqUZn1izMeOJZ/Xq0CPHwmxxlQdjWhSx0oXZZPqoO52CJ04owYi5W7V2MbsvaUH0eWXNesVlV1IBLA2hoH4IGXvsAnYnsO/WfLqrQQYNF9gQYBZod9KH7B/WX5WrasPEQetQmGx3rfqUtI5+hTazLc7HOTyx2QeBtVdmGR1WckUFehbhWCOEh9xHHFv2zIug2W4WSIjFy9zbiZAQxQ8Kn+FSoLXkdkx9zxTC5+lYsB3Oes5+XDFh+DFnGNe5snoIlKeDmerriXmDnp3jkbb3UXkRGyUP42wMOsZk5HS/+YTqu/d2+nxnQS8Jn2jnjWH8/jf6J85McyEvVi2vQdGM4Ch/2sJoGduCEGOUyChZAXKnBSkyT5eYbggMvDeLVQsx0CYFQUaGWmrZ8lFd/bKsWHR1aiJBQ0MeqqNiLkU+/apwHFW2sFmKmSwgAa58atOaVozpg7bcVO471i/4vwALHOawsJhHRioYYxQxd57RGqz2xvHsC/dTmWyv1HprMUrxQvRDX3tX77WxFxqwXsKlSv06QACxuCB2r4h3R39Rnm0QPuJEWNRIzPwqh4itmBOKHaPwwoP2CtwwZ/dBuzJh6Bqfk7+yf0NYzGYW/fw236dcl3UewPVAv5MwYzItkDWKYBJLygsb6Il4/UxP+i9gixMwnW/TKFrR/K36MJs0QUiEWqrB7mWFBGJEjvpJaBHhYCNqqjX0/OC4FQtZYaxDfiOLJJBg+D1kDPvgc3/WKfYruD4qTjnW75ftIEPjFk7R3mc8/jmDeO3Ok8OqIIBTiYs2juHtEn8uq0rGuzG1lsVlR1qKx2bjOsvsxZYToizPfBC02flBfmxYl1D6Bg+JYmDzT6JtVyKUfyebjNkvLydX28yxZMRdZvYewzRBpJ1eTkJuC+Vb/0VNudbXvYhtEEshH1bvwutkZDadxnATA5AmuWVEttca+DRdkbMvo7NCdXbdvF15q0CtEx/f4+oL4f+JEOVMpefyEI9sCqP8RGDO3EsvvMZ0MB1B31kMQVE5DPllMakKWkKWzMqQFwrR2bH1JCAzxoFJa7jU8h+G+8cgR/7U2mnaKrXjZtLJULkVpJlltTGuG2EcIBxITS/VnfuDwWXGmGSiYY0oyJcj6j+0w3hsdBzY+Zbfo7H8De+WXf5pLhLTuNCxKgQbRF0DOaOM8xHufMiw71N9v1NFe+ZjmuGfJBVReNBzthwIOq4ubiMHANsv3PnTWyy+6+N2TGwwiCF6GSQIpLWjML+L2o+H9uZ1NlphR/HyFRoBc/ML1RYsSMZC+F9Y1cR6N5sDrpGyCEBo+dF80Bva1+OtCsgKRaCHrgQqWNS09HZe7guLKOq4lFnLH0s93ciiZMSUqqwrRdsot+BKFXdAR2mrlYbkJoQWlS0Q1gybuZOVoX1XgZeMp173E6lKIHyvo2MlFNJhiJUpU4O/AcO6rAGrOXMfwonJUPhiKqvESBNK60XcWddZgLQUO0NXpcKcIudBAg/3t4x0WngjsvyTkvRjWl/iLUWVh6cIlhwvKJRz21+EsiUzTyqQF2dnDzvONj5Yrcq6cg9itP5IWPfMuCLmPKjFvHLkFA9gTccZS5GDgG+f22d34HVdxQ3zGv/A0H4cTvAyTeFJX0GTPxvRx+u90RFsWsuY8GrIsSIuH9+DvdAVJi401WP/QhR7x3JlbJgTMfcXA4UNoswQOoaeXJxZtBbGJr4FAWaDMmVBeMT/kWpMikESN3s82M8wSfnNesR1rPQVgi89g0LHy1BiLLQYmJqzcMaHlxZLYbJMJY9z0kItBWyBCgkBZN1rrHDEpYhi+5jelKnNkMHYoOrbiZel+UaJGWdo8XFdhZnFl3GG1qK0ehpVJiqG2va54nOggd5jdAmiL4YkRiscxj0VuO9vRCmahcJj+OxpkMHA7Tkd4eIyX4UWzOIicSSqpK2ikH1Y9+ZG6N5/80gMtCAyrCwUbO4N03SiLzU7pZllsxISoOJsxOcD5/d+gu3cKitfQuhi4kiI6oondiRLK6SP+M11t3ugAXgoo1jEvtCjrlZuQCHxTufKEeAmKGt2mM0YouFjuscFwOZGYeXw6Mihw14p7EcsOchPFDImZ+ZjUdxp/No7155MDZ6GxLKnSLRywBwhvbTQEgbRuxGh9iGv6uBAildrKRnEq5Lp6Pvp4nP4rRovSamNZmbQgs7mzosUIMjYsgO9QnE4cqOBicpuFjqWu1eDsHvF5kIVEuX3CW0hGYfZ0irFpSWAQr2UhgnJ3cYAwk2RSPobmp6PbETjULp785sU0FTCzUPob0HNZbxhogvEn9oE0vJjxQQ/Oyo1C8TJVOHmmD3kzlAWnp4vUT6w4XC8eSFfPiGKUOAKAY0fF1EQ81pqZcjZS29eh2VHRQbFPWtQEryfy9UkGweW0oDBPDJF9OF6fgFlI0yZKC0bL0e8HId+NfcDydAvL4GAlCJR1IxQMLLEJBhMdq3K2zmHNiRGKNdGiZqQ2vNhElomnO0kFB0srUzyCzEK71tzWqXiwAqujsxT5uQRtRAgG9uO2aUUYJr5rV0/oDUFoFlw5CodF6+5imJsn5QWNhJ40vmzC9WGFKI8m90Xp+3L6dmd9HNO2E4V0E4WbvaQo2awzE5uUfYL5NA4379ZBrmpwzqt4DHk6ELZjf6Oc/UPTlnsuO6cqR4MVh2JageyogOVM3L3WHqyc+3qt73v8UMG4dCzn9W7EkzbXmrhOLdQIms3kdjmJ93zxid3aYwUeB8UdJUk8L11SqZYNWWXfzcQvC63rUmUV4nI56Twxk6aGZjTRFO7ku5yiHbBUcDDN0pEWhWAwsIUWDLNW2SwoK9+iKcut2OucqhyJyk34eK1dHN07p0DIGcOtpUVWqW3m00psoinQHiJBxgLRzCM5DT32YGCJjm/JLw6F/5KVJT6XU4tKfmgGE5Ol0elyMoj0YDi1VM0ijSkz8NjXMOXXGbjxbbV72rac0k/Ttj2m9DNMkkifPDQSlfsC4mkw+AMq89DMEk8JJv1o+3A5OpNknVE5Vboc+UyUu4SmCFtTn31zvthytOg8M464Dqdrysq5Etpuvc+chaRdNvSnC6/8K+623blcIuzjyINjIc83256LhrCuI4TjvKw8QBpqi5IMuvpbt2sGXnu68zz2owDcaPLhJBOZY8YQHS21n6JhqhA1I0/jz1uUtUXt04sdbx/ER2o3gXIxjTZz0VBdqbKQoKE8NZvFUO1+b+Kg2YflRTeiyzNi5ZjxyumiceWECbNvJFzHEsLInZ+Fpm6/gFLj6+mZ60Vi7eudzyZqSHQYeWOovSrx/VLTx9X5qXMPrSuUuyrHdn7ahaXXZH+JD3qVnv7ua1mUOWLG45Itd5D6XR12pibM5AuVh2a0XrPo3LUYbQ7rDLkg540Il+uGYZJDmgkaD7Sg6ff4Yg0mlphxDbLWAOuTLI5hhhxa0MBXMKQ6WtAgfpGV0siEe4ggTpWgyfj2T/j+n/v0NoZJLdLD5ZSGyGBdr6ndwXgYhrk1UC6fONxHqcJ9C1Agvs6JiX9JNZIRDMwwgwMLmiShcqeomUgmJZuVSyiZeVsYJmWo3CTdP607w6TkT2lWYhO5y9pqBjAn0UCicsVESrjHMOkAC5okQVOKabqxygAcWqx0/a5YD4YZQshyBjT1Pc6aR4MOucnk1H1dRsGWlZdhmFQk/WNoGIZhGIa55WELDcMwDMMwaQ8LGoZhGIZh0h4WNAzDMAzDpD0saBiGYRiGSXtY0DAMwzAMk/awoGEYhmEYJu3hadt+yBIFOTjoqn+UHlg1k9y1mRKMTy2noQcVkHwIMzP7cPzvu/D6Hbp+Ul+o9pKN3Lvwt8enI8Pv9QRCxSjNwpZUF+qlBr2SClh9gYtJqy3lRtW8muTXplX/6sJBPFLdqz/bFOy7Wxwq4FluFKdLuZxGVp0yz3phqcOtUl+LLTQ2qBCjrgZNJQp6u9Au/qS6TOutitBDBipk2ZpylajTBl3lmsoeJ1OsRMNH1Z/ikbfF8vfT6pwGCCqe+Q8hGp7W6+lLHy5dU/9fuyI3MCnC1pcqUFEhlndPDOi9TUKqOmBWY09npmLSOKD99NAvFsqCxkYVdn/dhbvXtgoBM1Os56Dsi1asmgN8ty2ZpQpISNkzCt+s0Di5Oh8bFuYn1zoTB1IcGte5fm8tSvRrqY016PXiklk+3I+OPnTS/ykgeAadju/xOxJcA2adIXqp68XHdg0taoMdLUj7r/aqdYaJh/1v4CkSXClsnRl1z3SMEY/mLWf1hiFMmgkaKnNfiUUFejUZfFAmhcCGU0DeiBx0/4WEwa+wu1a/nnDIUvIK7sYhVFG7etmG5/Ckow5UeqNEmxSHG0PXuWHhcRSno/VLCxYeEIcGLVdJ/bjFKpnqK1fMxii9zjCphLw/H5yq17wYhTv/a3j8xUezZ2N5ssfcBJI+MTTUsQ8XYrhQmrYy92Nfw13PFKH7w+X49wO7UThJb+85hlPv/RE/69WoWVOL9RVTgObzaMumDVOEsKH6S6FYGrIyrCpqRNWyiyjbq4pNEl7xKlYsi4vmz7Bh9Vp1LDnI+4kmEgJC8HSr/V04Ylic7bU5YltUe1QJ3Buva3C+x7aP0X7jDKPtXiHQlj0Ba3yIfJ0hXH2m+8qJcz/veCESjKHPiCqgm5/lwKNjceARW6NjTXByF363jwbY0LYMtSbQMTxeViK9b2eYOBByE71YEvos+822BDIeBwfxSH2mrd1QbIkVm+KHEbPiPHefeKLIbVpYcUx6VeA8/4Tj97ujoZpVqvimM7bjXrwaeAGlOIF3KkNVuq39g9xMnahg/IaFdxyHMw6l/9g7eMqqfF65Sdbbsm3TqPfFEhvifc0Sfa7waDtEmLb0+7t8Y2h028F7ox8n3n0Kb+zXqwJ5PRD9XTPe1m/Bz87Vnw76jOty7mu+FmQlNlWXA+L4O0abn7vXdTrP3/E5uRiF2SvKUTgMaD8UwB4/60vBIlTOHYamL7fjiDHM3/bf2zFj6hkxRv4LY9ZXYLTefuPbP+H7f+7TawoZfzMOuH6mBtuPprbTKj0sNPSh0I/KjSbUePyoQNxWec8IMYNqHN2wWCzV6MyahRlPPKtfjxYhHn6ToywI27qQhS7ULstH1eEcLHFaEUbMxaq9i9FtWRuqzyNrzis2q4oacFUxSmsfggZe+wCdiew79Z8uqtBBN2L2BOSqDR70ofsH9Zflatqw8RB61CYbVDRTWUY+Q5tYl+dinZ9Y7ILA26qyDY+qOCMDKsK5BEJ4yH3EsUX/rAi6zVahpEh8U3sbcTKCmCHhU3wq1Ja8jsmPuWKYXH0rloM5z9nPi8SWEDNZxjXubJ6CJYPq5upDXbMYgDPzsMDxgS4ozBN38kV8HRyghXhYAmyW7hq17LiQiZmPP4R1/jeDLyQcXizpFYIjFHODkofwtweMX1Fi4nz84/GR+Frv9+eTfZhUZrV5ES8Z25WA0ceTi+FWCrqa6Lz1Nj/Ctql4uuJeMTgYbdVeRIbX+SeS7iPYHqgXcmYM5lUux2z5kBPiwMa9YngSD3TFK9UGi/sWoECcVv/ZOj3I0YBVLQa1LjGY6biQihq05pXHF6thCAR1LIozuYaFb5nnQQOqGMRvF4NtcJ8TwKwXUG3tF9iBE+JjzChY4DiHlZhGIqitIQZXygHUne0X93YBFtynN2nunVMg7u1W7LUGaDr/4obQuVe8I84jH+XVm0TLsULXKcTAVSFW9PHeOQaUPv8xXnWcB6i/nx+JvcH9+pG/RO8XdB9VoIZ+HEmk6HW5mILFuW8Y8peIz/2Ovfo4+jodn/nKt8Rv5UdGWztbkSE+p4/Xet0Z5KkgMXNdCJUwYkYwdeIYoVIu4QcvmwWNkULMYBeNmWLZ1Yxhv/7/kCduK5NzXwVQc+Y6hheVR7AGDT4pL2hG3bNcKMwxUh0GwkVotwgx88kWvbIF7d+KL9akGUIqxEIVdi8zLAgjcsTPmBYBHhaCtmpj3w+OS4GQNdYaxDeieDIJhs9D1oAPPsd3vWKfovuD4qRj3W75PlWV23ugbe8yn0Adwbx35kjh1RFBKMTFmkdx94g+l1WlY12Z28pis6KsRWOzcZ1l92PKCNEXZ74JWmz8oL62zZaqfQIHxbEweabRN6uQSwNL83GbpeXkavt5lqyYi6zeQ9hmiLSTq0nITcF8q//oKVFWVfZeNlWq3RJJXVObeH7MxC8LzbszEwsmi/ULF4w4EyEeHBaNj+op8Nf53ijIvQu/mUhWD7vg2CyEQ0bJdEdgL1mBQvtZ5zvyDr0hKURu86Nqh2Wq4TSO02A8eQIW6E3J4Rz2BGrQdGM4Ch92mt+3okF+gafZBmLXAF65VDx9k9XAfDLfipfFwIXMUiyN9T6bNFIcvx9nDxtP8DTIGtaee9cuRD5ZAxwDcZUYxJG3UA/2PiKkcpp4rzjfmujlDHHg8FnxrgwUzDEH4nuxoCDDLo4c50rn8UadlIaYFmNfBK/TON6BjVVCOGSgtNwpj+yfgXW+I/1NjjcPCaPguVn9PdJm5dz6kt2a5Cs0pQtoHsbIh3u71cVN5GDgTiFm2oTGlZyoRpt4Ch5d6DYE/HR0OwKH2oFx81LaBZvSgoZMXeVFw6VJLZKpq7PJEjOKn6/QL18ufjFWrceMGEjfC+uaOI/GcNOUyyYIoeFD90VjYF+Lvy4kKxCJFrIeqGBZ09LTcbkrKK6s41piIXdsDm1NCiUzpkRlVSHaTrkFX6KwCzpCW608LDchtKB0iahmdJOozNG+qsDLoacijyUpU0SFkPj6gmMgzp2AXwqN0nLuot7ggxVsHCOW9afB4Yqqo87ACIw3LCHoa0NdJOWZaOJq0wrUHgh+wpFtAdT/CIyZW4nl94R+0rc2Ogdi9wC+sphcK124ZA5aRKBBWnhyRns9iYehhYKaxYDtZYWQ6HPwCIp2DuJeIkSeb99Z1DnPNxJCqOwVAs82EGtrVWujKWA8kNcUKx5iSXIAl66K/24fbxcE8VzTTRKy0sWCPn8Ty1PxY334h3tN5GDgZly1xIxkH/4t++y/cJvaYOfsHgS+bML1YYUor1wk5FLqkbqCRijR6UJdpi3aspA159GQZUFaPLwHf6crSFpsrMH6hy70IAe5ZWLcu68YOHwIbZbAIfT08sSirSA28TUQKAuUORPKK+aHXGtSBJKo0fvZZoZZwm/OK7ZjracAbPEZDDYfkXAx3E5ScPSdxg6H4FBTo39rLOHiV/yZdDv14QQstR1LLJSLJV2gmBzH+Zv5dwaS4UWzQj/o+mk66HaSA7iHdcNvxpUg444YP1Xp8qgRYohEjWVR9HDXXL3kO5gGRZRLhCh3U2udMyYkOqTAMyw+0lrVdwI7HA8Hcmq0aRENF7/iyySMpFubXEnmscRixg2lPOSCC3v+ozB7evAXPwpGyWDg62eOxRcMHJExmG6I+lQhdQWN9F0r3x09EaW6786NFgSG1YWCjZ1Bum6UxWandLMsNmJCVJzNmBzg/P5v0N07BcVraF18m5MiOqKJ3YkSyukj/jNdbd7oAF4KKNYxL7Qo65WbkAh8U7nyhHgJihrdpjNGKLhY7rFBcDlJGi6Iwc1yHSl3U3/zRZt7yQrgpeDYYNzI2wd9B8VwqFk8zngXa/EJMk4lrABjSoRnnHvE2JyEQUGYKjiSLMYBWyyfdiNot5MawGOzBPRfiedT3YqXLWsiua4QWwxKV2dIrthEiHQ3taIhXuuktDpZFh9lQXFaKVTAMbl/DIvou/HkmmlR0/MpuNo6jrm4AnVTECvA2HEN9tgcZSGUFhJy+0SykBTMkjE2l5oTGMRri2WN7DUZDFI+hiZe311mofQ3oOey3jDQBONP7ANpXNl09eCs3CgUL1OFk2f6kDdDWXB6ukj9xIrD9eKBdPWMKEaJIwA4dlRMTcRjrZkpZyO1fR2aHRUdFPukRU3weiJfn2QwXE4SIS4ofoXcTtLd1If/aTKFm46p8bDaxIOna+kmScYx/VAusz4cr4/gkksKkYMwVXAwuZ28B3Cn1SKIjlWxxcLEA93HUtTkYLxswy6yTKz4HptgkVYmJUKkuymmYGAnW7HjWL+y+Ghrlf36rIDjvfa4kbjwcS3dJC1X3HEuyUJ9HlHGK0UIUrcIGwzsy7O4XVzwjXP7XLODrVhWROnuGixSXtBIYvXdlb4vp2931scxbTtRSDdRuNlLipLNOjOxSdknmE/jcPNuHeSqBue8iseQpwNhO/Y3ytk/NG2557JzqnI0WHEophXIjgpYzsTda+3Byrmv1/q+xw8VjEvHcl7vRjxpc62J69RCjaDZTG6Xk3jPF5/YrT1W4HFQ3FGSxPPSJZWq2ZDrKPA1Mw9L54nB+sJph5VEx4eYs6GkyyU+l5MKoKUZUgnM7CuT04ljzku+20qJJzMYmqZwD4DLyQrClNO2wwVhquDg/CU09dYIBrbQgqH0aXN2y0psomnLcQzsNP3baT10xulYIqvcnPl036tYNUsMn8d2uGJOSADRzBppOYkxGNiJjMsRAm5puRisXdenrSqm2CJLaVwuJ9HzNSdEW6V4wTbD6+Y40Nkl/s3HQs9ZRolFtWXGMKkZcf4us3BB6gIdrhFrZuDMJ2j6djMuekzbplhWOTHnq+Q4sBJFmtVyoieleYA5717moZmFYXpV0Y+2D5ejM0nWGZVTpcuRz0S5S2iKsDX12Tfniy1Hi84z44jrcLqmrJwroe3W+8xZSNplQ3+68Mq/4m7bncslwj4+tZzk+Wbbc9EQ1nWEcJyXlQdIQ21RkkFXf+t2zcBrT3eex34kFqLJh5N8QnlVvGsIOfOukMvoAqYJUTM6mH8lXF4YIyeMxln3SSLrGSnLh3x9pCNfjHb3eOa3sWoiBQm16cx5Y2Lmj4m2TefxqM8apnq8N4HIHBzR1sChQVkKFL/cMrHmGgmPM79MuFwoJHUsfOshWa4Pz+PESuhavdtznBe1KW6aVaL9UK4Z97mHcOZy8d7XbFv2F01hN69NX7NXfhtXziCjX1yvGYQ+U3VOOY7PWL2Xpu+Hzt95PDrvhmKP83Ug70/U24QGWVPKi2545k2ykHlofu04f6/cbToP041wuW5SiPQvTqkFTb85/SwFsMSMa5C1BlifZHEMw6QpWtD4CoZURw/utuR3TJqhEu6N/1f4JHhK0HSgacNz4vFu6JAeLqc0RAbrek3tDsbDMAwzlFBTnd2zedIFV+4cJv1IRjBwGsGCJkmo3ClqJpJJyWblEkpm3haGYQYWchnI2JOPbtZVM0hUbpIuj9adzpT8TFpB8aYRE+4NXdjllES8Y2i8YlkYhklHQnEsNAXZke01DTBjN9LWVcbEzFB1OaW/oGEYhmEY5paHXU4MwzAMw6Q9LGgYhmEYhkl7WNAwDMMwDJP2sKBhGIZhGCbtYUHDMAzDMEzaw4KGYRiGYZi0hwWNH1SiYK+9KGM6QTWT1u9tTX5hRtlPrXjSkUBw4KBaU+parSUp16yvM9iOszgmw8QB5bGpDpgFKzVUhqBavFa9CYkruRgDsiinR+FDhklhWNDYoMFRV4OmEgW9XWgXf1KCvPVWReghAxWyHADBk1SswpmUrDAfG/RiL66ZIGqfwHv6+Dutgt5+DLrIY5ibY9Tk8Rh+ownH0qAgIcNYsKCxUYXdX3fh7rXiCXzzTLGegzLx9L9qDvDdtmSWKki8leHk6iQO7jGjxJN5fXK5WStH2f2YMoIqcn/OmZeZocX+N/BURQUqbBWlB4qpmFU0HNf/9UPkCuMMk0KkmaCZikXJNoN+UKae9E8BeSNy0P0XEga/wu5a/XrCocH+FdyNQ6jSFgBatuG5IfeE33P4zeD1bVj4Jr7DXKzaqy1iN0HP5VQQbbFBZf8rV8zGKL3OMAOCdCUtx+xsve5FwSSMQfwFDvneZgaL9Cl9QF/EhwsxHO2oD+zBOb1Z1XIqQveHy/HvB3ajcJLe3nMMp977I37Wq1GzphbrK6YAzefRJr/0U4SwsddfkjWaihpRtewiyvaqYpMEDdhOiwjFsiyZrFdMmj/DhtVrdb0n4LuNfqJJu1W61f4uyL2xdi56qvPx1w/c7bXp7Rbe9aVCeF2D8z22fYz2G2cYbfcKgbbsCXTIFRJtjyHLdWy1Pc+2r8D6DCx0X7lwXLsnzmO5aml5n5u65i7Puluyj7Md5yzw/aw1ts/C7362qNyE6iX56D/2Dp5yVD9W9YNaUWM8vZs1eSRtNah4KfZne3lsiPfWjMfHz5fCOqJXnZ9EtSmhmBGjPdGi7fosQrWTFLb+ibHPIiLPqQBn330Kl8qNdvtO4J1KRxFK3XYI77ZcfUaYx3P2g1dbQVZiU3U5Qq1GuL6CRaicOwa40YSabUd8rC+jMHtFOQp76xH4yrwrn0Xe+gpg12K030F1gKwzbHbXA4p0bzNMkkgPCw19EekLQl9Ezy9IBvKeEWIG1Ti6YbFYqtGZNQsznnhWvx4tQjz8JkeIi3xs2NaFLHShdlk+qg7nYIkzhmYEWRcWo5v2JYtD9XlkzXnFZlVRA5wR3yH2IaSlwjZAZyL7Tv2niyp0kN7MnhDGPdOH7h/UX5aracPGQ+hRm2x0rPuVtpB8hjaxbreaOF1UyhWmBFdon2141GVVyasQ1wohPOQ+4tiif1ZEdJutRe1h8VM4ohgl+ngkJNZX6M/AOtbkx4wYJsN9JcRMlthCbYdcWUYgNwmeGcf1cWh5E9/1TsGSJAV7O/ueBEyobYfo6j6C7YF68ZM/BvO8npgDO3BCdE1GwQJHwOhKTJPl2hv0wHUvXg1Ui0GySwxm5KKgpQateeXewabRQO99fiT26uO9c6wf+Us+xqv36dcT3aYexCGEiDqWWN69hoVvmeGwNHgLUXG7GOCD+5wAZr2Aamu/qPssFjJQ+nw1Fl6xzk1cZ2YpXjDPjc6/uCF07hXviPPIR7kjoJdElb3PKlBDX0KToKvJ4zUTalOImRyjz2ra3G1ajLpnuRIzPwqh4itmBOKHaPwwoP2CtwwZ/dBuzJh6Bqfk7+yf0NYzGYW/fw236dclke5thkkSKS9orC/i9TM14b+ILULMfLJFr2xB+7f9wKQZQirEQhV2LzMsJSNyxFdSiwAPC0FbtbHvB8elQMgaaw3iG1EsntZt8R0ffC4GVLFP0f1BcdKxbrd8nxqUvQfa9i7z+UcN6MEYmztzpPDqSIZLbM2juHtEn8t61LGuzG1NsllR1qKx2X6d4bEE3UaUzckUffa+cfy1+CsJwcmLtYgS65ZI8BQOhkWFAnltnxvFSJGonILilHDnncOeQA2abgxH4cNOV+oB1J0V93BmARYEhYSgcpp4Iu/HiRo9NFcuRWkmVXo2n8y34uWdreK9pVhaqTfFhP14Bw6fFVsyMNKyfia6zUkjxdH7cfawYYeggd2w9ty7dqG47lbUmNYKsU+VEFvIW6jFVpR9FittNYbFZysa6At7+/iQaHKcK53HG3WiL0Sr06y+EAJkoRBVrTvDWFBiYGV5KTL6TqDKsERtfUmILdHmwrV2OUcuoPKi4Wg/FHBYXdxEDAa2Wb73obNeftHF757cYBDu3maY5JDSgsb8Im4/Gt6f29lkiRnFz1fIGZCLX7i+aFEiZ7W43Q0hzqPRz81BlE2Q1gNPui8argo1QFeRpUIMtEu0pcG09HRc7gqKK+u4lljIHZtDW5NCyYwpQG8jTkYhltpOebiEokBem8WamchDH87vt7u88EOXEC7hrFgxII+VSvyEI9sCqP8RGDO3EsvvCUUeWEKiYE5ogFpZnA/0nUXdfmNdCNpLej1IoEEMbkDO6JjtJbbje5HwNluuyessfd60ApnciwUFGeK8rqFFb7Fwiq1o+ixWWhvjkCDymkLcO6dAnFUrGhxuu/hQFqf+s3UOV1QLrpGF6g5LeZL7qBLzxl1H05cB7Ik4YylyMPCNc/vsbvyOq7ghruwXnk8u/vc2wySD1BU02bMxfZz+Ox0RguggPbzMeTRkdZEWD+/B3+kKkhYby80iB+Ec5JYJAXNfMXD4ENosgUPo6eWJZRVyyVRsE1+JxxRk6u9MNcss6EISi3YtxQO5/RJ1rIFgeNEsMaxoxJP/XnEzhFwoaiBrrXPEVHgM9BahwS3BJLJN6WYh64Jy71T75V+5eskxgIcIiqho+yzBkDtJnbdebPFACea+8eLXQFwjudvMNqtfQKlpki6YhcJh+u9okMHA7Tgd4eExXmz3NsMkgdQVNNIPG0DNmetS3Vc+mG5fBS0IDKsLBac6g3TdKIuNzHUSdLMQykIxRvySnd//Dbp7ldtkTI74BUuK6IgmdufmkeevrV3KWkMuLtOFFFrC95sbFcPkOJ5PbNHgYT1FQ7kEHDFiWxvJjaNdKNJ1EttTfv8VP9mRPOJrcyte1rEgFeS6ElfqFw/iRVen4Xq5yT6LFRVwTC44ff60vHvCZqFJKPsvgb4pFPwcbM9cLPfX2T3ifiILiXL7hLeQiPtwOsXYtCQwiDf8vc0wiSblY2h+OrodgUPtwLh5MU0FzCykAJYz6LmsNww0wfgTYzCNY1CWUJI/+QfF5VC8TBVOnulD3gxlwenpipTpzYtmIYqArBz/aTkydscI2E04ZZ9gPjXffFy59hLpWtIxTGje7Y73icgqlBTFFn1lQ39eoXgqPygNQbl4ig7jEpCBrsqFIl0njsBW2+BtouNGbHEpCSLpbQZe1qImB+NlGzo2Jm+aS+B4unIi9FlisQKO9+KNMC6tA50kQazr0ei4mthxupbCc+4r9WA4vKjc/8EwQjCwH7dNK8Iw8Vty9YTeECSKe5thEkzKCxoJPWl82YTrwwpRXrkostmy9H05fbuzPo5p24kiysG5ZLNHHpbgQG8Nxkp85FU8hjw9+Hfsb0TP5MfkNOH48rBoC4zNCmRHBSyTC8gerJz7eq3ve6JGT7nOomnUVuCudtPlVdx8bhqrzzB5puHyq/VwOWlhFwxgtrIPy5U40cc03Y1OZD6QedLEXx/YjiO+mRPUYE7uBWkFcAa26sG79GlzdtFKbKIpxBEG2bhJcJs0lXmTI5DYGadzYONeIVvyUe6YXbRqVgb6j+1wCJYIfZZQlLiwiS2awu10Ocn4ItFn5dZeor9oZldfPHYcHXScV46PHQHAfkR6MJxaqmaRxpQZeOxrmPLrDNz4tto9bTuqe5thEkv65KGRkOqfBxwyFL/MQzNLPCWY9KPtw+XoTJJ1xjtHiTufiW/OF1veFe8B1OmasnKchLZb7zNnIem8LvSnC2f+FcLdtjsPTYR9fHLByPMN5mrxPi8/95tnvzlz1RA+bYdwtEvH+AuwwvUe+37y+i4/Ckq7YfWZ72cpcPcZ4b5m83op4H3eiHD5QAxoii4NkL45SWgatT1+wisXSzRI9wlNjTbb0e132XLRJK5NQrlt9Arhea3OvCs0a8idH0cSsc+iwPO6vfrIcV7U5kfim+N8r3VOcoVcVE+hbs7HeKHgbPBYnnlqNK7+tR3PQh3XV1TKHDHjcelLU2io39VhZ2rCTL5QeWhG6zWLzl2L0eawzsR0bzNMAkkzQeOBFjT9Hl+swcQaAF2DtmWZ8EsWxzBO9MBFeVriFQy3HNxn0SMT7iFCEjwlaDK+/RO+/+c+vY1hUov0cDmlIWawq41gPAzDRIcVJ7KXB+ao4T6LlmQEAzPM4MCCJkmoZHjuBG4lm5UbIt68LcwtRuUm6YJIVEK2WwLusxhQuWIiJdxjmHSABU2SoLwylCzPnpY/VArBO+aDYRQUSyFziyzJ948TYWxwnzHMrU36x9AwDMMwDHPLwxYahmEYhmHSnoQJmtbWVrbOMAzDMAwzKLCFhmEYhmGYtIcFDcMwDMMwaQ8LGoZhGIZh0p7UETSUrbJyOWbLCtX+ZD6xG/f8/jXcpteDUMbg9eK19e/DO0E9wzAMwzBDlZQRNFMnUrbK01zIjGEYhmGYmEkNQZM9G9PHxV663sblP+L7DYtxdMNz9sqvDMMwDMMMeZIvaGQp+fCupFGTx2M42tESS+n6JDHqnuWorFyEqXqdYRiGYZjUJ7mChuJiHi7E8BuX8IOvK2kqZhUNx/UzxzyLo93239txj4yNUUvhJP2CRTB2Ri9e8TWl78vX8kr1uoGMyTHibn46elpIqzGYF0U8D8MwDMMwqUHSBI20dMyluJh6BLYdwU96u4uCSUI+XMelZvceJDZm/LoDTdKVpJamFv2iRdDV5PGaxYlT6BT/jS58Vq0HeRa3C4F049tqw011DnsCNWi6MRyFD1diUYHezDAMwzBMypIUQTP1wUqUFw1H+6HIVVx9g4HHvoYJQmx07kpETMwWXCWxM2mGfQZU6QyMRj+6G/bpDRaqAm39j8CYuZVYfs8ovZ1hGIZhmFQkwYJmFGavqMS8cdfR9GUAeyLFxIQJBr5tWhGGoRlXT+gNN0nfvmO4gcm43XA7ZRZOBnrOoOey3uDg3FcB1Jy5juFF5ah8kKNqGIZhGCZVSaygKZiFwmH67yiQwcA3mnBsIIKBL+9Dd4/pdlLups76P+JnvSUs46ZzTA3DMAzDpCiJFTRn9yAQIFeNij8J76rRwcD/+sE/viah7EPPuf6Q20m6m8JbgCzX2fUzNeK6tnOOHIZhGIZJUZISQxOVqyZMMDDx85UO8W8ufjFWrUt0XE28/PzPPejUbifpbmo55ROfY7nOIOOAth8dGMnFMAzDMEx8JEXQED8d3Y7AoXZg3DxUrpgtJIKJEAzTI2QGljOTMpD3QMhFlPfMLKCnX6/HgwoOHl34Pm6f1I+2fVv0dpOpWFRZjsJhUcYBMQzDMAwz6CRN0EjIBfVlE64PG487zfiT7DsxflikzMBb0PbhMdyYVKFzzCzCvz9cjPOOt5h5amSOmqxZmKHX7/rvB9ROBn1NzcCkyRjtEww86p7pGIN21LOLiWEYhmHShv+YOXPm/+3uHtiRm3LUlP/XJdSEy0/DMAzDMAwTJcm10Hgy0MHADMMwDMMMdQbFQsMwDMMwDJNIBsFCwzAMwzAMk1hY0DAMwzAMk/awoGEYhmEYJu1hQcMwDMMwTNrDgoZhGIZhmLSHBQ3DMAzDMGkPCxqGYRiGYdIeFjQMwzAMw6Q9LGgYhmEYhkl7WNAwDMMwDJP2sKBhGIZhGCbtYUHDMAzDMEzaw4KGYRiGYZi0hwUNwzAMwzBpDwsahmEYhmHSHhY0DMMwDMOkPSxoGIZhGIZJe1jQMAzDMAyT9rCgYRiGYRgmzQH+fybElnBpqx5bAAAAAElFTkSuQmCC;imageBorder=#33FF33;strokeWidth=4;" vertex="1" parent="1">
                    <mxGeometry x="-995.9957142857143" y="3149" width="564" height="194" as="geometry"/>
                </mxCell>
            </root>
        </mxGraphModel>
    </diagram>
</mxfile>